name D:\school\WTK\thesis\model\3dpredictsim\Results\tmt_lin\Pog_s1_tmt_bCst_d00_k500_ig24_act_v4.mot
datacolumns 128
datarows 4
range 0.86920567 0.92135801
endheader
time	pelvis_tilt	pelvis_list	pelvis_rotation	pelvis_tx	pelvis_ty	pelvis_tz	hip_flexion_l	hip_adduction_l	hip_rotation_l	hip_flexion_r	hip_adduction_r	hip_rotation_r	knee_angle_l	knee_angle_r	ankle_angle_l	ankle_angle_r	subtalar_angle_l	subtalar_angle_r	tmt_angle_l	tmt_angle_r	mtp_angle_l	mtp_angle_r	lumbar_extension	lumbar_bending	lumbar_rotation	arm_flex_l	arm_add_l	arm_rot_l	arm_flex_r	arm_add_r	arm_rot_r	elbow_flex_l	elbow_flex_r	pro_sup_l	pro_sup_r	glut_med1_l/activation	glut_med2_l/activation	glut_med3_l/activation	glut_min1_l/activation	glut_min2_l/activation	glut_min3_l/activation	semimem_l/activation	semiten_l/activation	bifemlh_l/activation	bifemsh_l/activation	sar_l/activation	add_long_l/activation	add_brev_l/activation	add_mag1_l/activation	add_mag2_l/activation	add_mag3_l/activation	tfl_l/activation	pect_l/activation	grac_l/activation	glut_max1_l/activation	glut_max2_l/activation	glut_max3_l/activation	iliacus_l/activation	psoas_l/activation	quad_fem_l/activation	gem_l/activation	peri_l/activation	rect_fem_l/activation	vas_med_l/activation	vas_int_l/activation	vas_lat_l/activation	med_gas_l/activation	lat_gas_l/activation	soleus_l/activation	tib_post_l/activation	flex_dig_l/activation	flex_hal_l/activation	tib_ant_l/activation	per_brev_l/activation	per_long_l/activation	per_tert_l/activation	ext_dig_l/activation	ext_hal_l/activation	ercspn_l/activation	intobl_l/activation	extobl_l/activation	glut_med1_r/activation	glut_med2_r/activation	glut_med3_r/activation	glut_min1_r/activation	glut_min2_r/activation	glut_min3_r/activation	semimem_r/activation	semiten_r/activation	bifemlh_r/activation	bifemsh_r/activation	sar_r/activation	add_long_r/activation	add_brev_r/activation	add_mag1_r/activation	add_mag2_r/activation	add_mag3_r/activation	tfl_r/activation	pect_r/activation	grac_r/activation	glut_max1_r/activation	glut_max2_r/activation	glut_max3_r/activation	iliacus_r/activation	psoas_r/activation	quad_fem_r/activation	gem_r/activation	peri_r/activation	rect_fem_r/activation	vas_med_r/activation	vas_int_r/activation	vas_lat_r/activation	med_gas_r/activation	lat_gas_r/activation	soleus_r/activation	tib_post_r/activation	flex_dig_r/activation	flex_hal_r/activation	tib_ant_r/activation	per_brev_r/activation	per_long_r/activation	per_tert_r/activation	ext_dig_r/activation	ext_hal_r/activation	ercspn_r/activation	intobl_r/activation	extobl_r/activation	
          0.86920567	          2.21024051	         -6.79976770	          4.93191680	          1.08650709	          0.94391959	          0.01889306	          3.96397582	         -5.57611058	         -3.67540624	         43.54120781	          3.46602479	          0.63447002	        -41.09199988	        -19.00122473	        -25.68407678	         11.87926651	         -3.08798764	          3.13427052	         -3.92659946	          0.00304642	         -1.49669847	         -0.03718165	          1.59320706	          0.66061587	         -2.78919709	        -30.01389047	        -16.20972582	         18.43215927	          0.05385974	        -13.75900786	         11.07493510	         39.75898205	         99.08676092	         86.51662706	         86.51662706	          0.05003029	          0.05000145	          0.05000065	          0.23043178	          0.07510176	          0.05374487	          0.07117956	          0.07174426	          0.06852767	          0.05660758	          0.16030971	          0.22202115	          0.42019061	          0.25972310	          0.08317114	          0.05000937	          0.38537572	          0.43792419	          0.16390227	          0.05000915	          0.05000310	          0.05000175	          0.15097488	          0.27598564	          0.28291569	          0.16596266	          0.05837252	          0.68396822	          0.05000193	          0.08360301	          0.27154866	          0.10246730	          0.13045190	          0.05000020	          0.05657567	          0.09289383	          0.09127810	          0.83761311	          0.53568331	          0.38884451	          0.98971328	          0.93923088	          0.96318081	          0.05000050	          0.13661473	          0.15014188	          0.05000229	          0.05000951	          0.06524706	          0.05000957	          0.05001370	          0.05001468	          0.08985111	          0.08322959	          0.13835466	          0.06454513	          0.11271083	          0.07721550	          0.12769712	          0.14856323	          0.12355712	          0.10223002	          0.20363411	          0.05009366	          0.08317703	          0.08268553	          0.07673369	          0.09116471	          0.05006297	          0.09475079	          0.18381674	          0.14792690	          0.24102536	          0.33160337	          0.05000354	          0.05000362	          0.05000234	          0.05000207	          0.05000415	          0.05000085	          0.05000391	          0.05002953	          0.05002325	          0.39970982	          0.18397288	          0.15387194	          0.30787790	          0.47242435	          0.35258474	          0.05000042	          0.12255819	          0.21684740	
          0.88658978	          2.24445988	         -6.57119189	          5.85108003	          1.10792947	          0.93788302	          0.01953827	          5.98324419	         -5.10592490	         -3.82582457	         41.55035357	          3.58246392	          0.57423569	        -43.94593090	        -17.27962987	        -25.67853290	         12.33672485	         -6.13471102	          2.62252193	         -4.80572907	         -0.00753250	         -8.78780651	         -0.04871603	          2.18298503	          0.01237827	         -2.82109068	        -28.57722193	        -15.46869446	         17.80580095	          1.45422012	        -13.54593982	         11.23560868	         35.70125367	         95.06651174	         86.51662706	         86.51662706	          0.07406169	          0.05000358	          0.05000233	          0.17867773	          0.05823515	          0.05000637	          0.08534446	          0.10727863	          0.10725995	          0.15948123	          0.21592695	          0.21580020	          0.32579820	          0.20137844	          0.06448912	          0.05000276	          0.40322409	          0.33960286	          0.15782586	          0.05001405	          0.05000460	          0.05000222	          0.21973425	          0.23761377	          0.21935975	          0.12868107	          0.05000271	          0.68307762	          0.05646810	          0.21586208	          0.44144611	          0.07945121	          0.10115011	          0.06448680	          0.05000029	          0.07202672	          0.07077332	          0.92478334	          0.41534907	          0.31636990	          0.77952867	          0.88328330	          0.74680753	          0.05000041	          0.21714641	          0.20846463	          0.05002253	          0.05005440	          0.13414178	          0.05005032	          0.05005159	          0.05090331	          0.06966657	          0.06453326	          0.10727390	          0.05005085	          0.08740142	          0.05989022	          0.09901112	          0.11518987	          0.09580131	          0.07926481	          0.33124464	          0.05016403	          0.06449487	          0.06418246	          0.05949916	          0.07068542	          0.06940197	          0.23885423	          0.14253443	          0.27459818	          0.41362511	          0.45496078	          0.05002343	          0.05003529	          0.05001172	          0.05000107	          0.05000231	          0.05000068	          0.05000387	          0.05012030	          0.05006056	          0.41646152	          0.20008640	          0.16642061	          0.29527789	          0.49047549	          0.36909318	          0.05000166	          0.18898600	          0.30933502	
          0.90397390	          2.20357392	         -6.40527369	          6.81566831	          1.12882512	          0.92908283	          0.02009446	          7.43261091	         -4.78871199	         -3.65987456	         39.74968304	          3.71829344	          0.51770904	        -46.09691456	        -15.77775864	        -26.92322002	         12.79226342	         -9.17084288	          2.10458828	         -5.57723909	         -0.02005166	        -16.96772305	         -0.06109664	          2.64220756	         -0.55032902	         -2.83113408	        -27.03731976	        -14.86409909	         17.14158810	          3.11553370	        -13.45355645	         11.40299379	         31.83435282	         90.64809383	         86.51662706	         86.51662706	          0.27273571	          0.05000162	          0.05000118	          0.13864544	          0.05002270	          0.05000709	          0.06618139	          0.08317904	          0.08316474	          0.12365450	          0.16742363	          0.25680652	          0.25261094	          0.15614073	          0.05000412	          0.05000089	          0.39449869	          0.26341800	          0.12237168	          0.05000577	          0.05000157	          0.05000050	          0.18421278	          0.18423557	          0.17008145	          0.09977567	          0.05001440	          0.73996805	          0.42155003	          0.60069231	          0.74127977	          0.06160353	          0.07842847	          0.05000022	          0.05000188	          0.05585058	          0.05487544	          0.80165102	          0.34964341	          0.28348703	          0.82130285	          0.93900935	          0.65341563	          0.05000038	          0.28091014	          0.28040526	          0.05000554	          0.07040086	          0.23517070	          0.05001190	          0.05004654	          0.08309115	          0.05401651	          0.05003699	          0.08317535	          0.05000383	          0.34759338	          0.05000458	          0.07676919	          0.08931372	          0.07428086	          0.06145890	          0.42481744	          0.05004325	          0.05000971	          0.08331478	          0.06192285	          0.05480706	          0.37447424	          0.44400115	          0.21417259	          0.30609625	          0.39249598	          0.56610788	          0.11597875	          0.12005984	          0.09602715	          0.05000127	          0.05000262	          0.05000096	          0.05000325	          0.05002987	          0.05002455	          0.42469324	          0.21164466	          0.16797921	          0.32010670	          0.50595000	          0.38413284	          0.05000027	          0.37662382	          0.36083312	
          0.92135801	          2.07300583	         -6.30725127	          7.77330737	          1.14928476	          0.91795063	          0.02050828	          7.76014875	         -4.62644645	         -3.11429072	         38.34137934	          3.86084194	          0.43916665	        -46.83719462	        -14.62073786	        -29.15452464	         13.26146869	        -11.58603901	          1.57216299	         -5.70978280	         -0.03455717	        -23.39564517	         -0.07311003	          2.94898260	         -0.97780511	         -2.83148779	        -25.43958766	        -14.38926989	         16.53230825	          5.01031851	        -13.47057558	         11.61763179	         28.29453083	         85.86597378	         86.51662706	         86.51662706	          0.66313656	          0.05000348	          0.05000601	          0.28707529	          0.05001173	          0.05001645	          0.05131789	          0.06449328	          0.06448239	          0.09587597	          0.12981282	          0.19912042	          0.22281537	          0.12107357	          0.05005020	          0.22023070	          0.30588292	          0.20424477	          0.09488160	          0.05001567	          0.05000438	          0.05000286	          0.14283020	          0.14284781	          0.13187333	          0.07736255	          0.05004751	          0.74685849	          0.66821646	          0.81504323	          0.87430680	          0.05009922	          0.06082587	          0.07010341	          0.05000079	          0.05000272	          0.05000219	          0.62156261	          0.27110397	          0.21980379	          0.63680292	          0.72806554	          0.50662837	          0.05000036	          0.32048786	          0.28945520	          0.05000391	          0.05459219	          0.18234598	          0.05001068	          0.05001539	          0.06443266	          0.05000110	          0.05000364	          0.06449058	          0.05000346	          0.26951429	          0.05001271	          0.05952523	          0.06925206	          0.05759893	          0.05000819	          0.46884409	          0.05007545	          0.05001028	          0.06460690	          0.06205024	          0.05001845	          0.61196392	          0.60124422	          0.34161352	          0.23737019	          0.30877647	          0.64248766	          0.18963014	          0.19673939	          0.15777787	          0.05000089	          0.05000190	          0.05000064	          0.05000377	          0.05006013	          0.05003548	          0.44487469	          0.21743279	          0.17645966	          0.32629375	          0.52062052	          0.40194861	          0.05000026	          0.43945556	          0.41256683	
